<svg xmlns="http://www.w3.org/2000/svg" xmlns:xlink="http://www.w3.org/1999/xlink" width="1920" height="1080" viewBox="0 0 1920 1080">
  <defs>
    <style>
      .cls-1 {
        stroke: #1d1d1b;
        stroke-miterlimit: 10;
        fill: url(#linear-gradient);
      }

      .cls-2 {
        fill: #97c7da;
      }

      .cls-3 {
        fill: #719eae;
      }

      .cls-4 {
        fill: #274157;
      }

      .cls-5 {
        fill: #68a169;
      }

      .cls-6 {
        fill: #85898c;
      }

      .cls-7 {
        fill: #f1f2f0;
      }

      .cls-8 {
        fill: #3b5a6d;
      }

      .cls-9 {
        fill: #faccb2;
      }

      .cls-10 {
        fill: #1c335a;
      }

      .cls-11 {
        fill: #635b23;
      }

      .cls-12 {
        fill: #4a4417;
      }

      .cls-13 {
        fill: #a1d4cc;
      }

      .cls-14 {
        fill: #72afa3;
      }

      .cls-15 {
        fill: #282b2a;
      }

      .cls-16 {
        fill: #303534;
      }

      .cls-17 {
        fill: #db666a;
      }

      .cls-18 {
        fill: #c24f58;
      }

      .cls-19 {
        fill: #f6bea1;
      }

      .cls-20 {
        fill: #7b432c;
      }

      .cls-21 {
        fill: #3c3c3b;
      }

      .cls-22 {
        fill: #fcfdf8;
      }

      .cls-23 {
        fill: #5b865a;
      }

      .cls-24 {
        fill: #e8e8e8;
      }

      .cls-25 {
        fill: #262953;
        opacity: 0.6;
      }

      .cls-26 {
        fill: #a8c1b2;
      }

      .cls-27 {
        fill: #c1d3c8;
      }

      .cls-28 {
        fill: #96aa9e;
      }

      .cls-29 {
        fill: #343333;
      }

      .cls-30 {
        fill: #a9b7ae;
      }

      .cls-31 {
        fill: #cccdce;
        opacity: 0.7;
      }
    </style>
    <linearGradient id="linear-gradient" x1="163.08" y1="-2289.16" x2="1282.48" y2="-2289.16" gradientTransform="translate(239.6 2829.16)" gradientUnits="userSpaceOnUse">
      <stop offset="0" stop-color="#98d4e1" stop-opacity="0"/>
      <stop offset="0" stop-color="#9bd5e1" stop-opacity="0.07"/>
      <stop offset="0" stop-color="#a3d8e2" stop-opacity="0.24"/>
      <stop offset="0" stop-color="#b1dde3" stop-opacity="0.52"/>
      <stop offset="0" stop-color="#c3e4e5" stop-opacity="0.9"/>
      <stop offset="0" stop-color="#c8e6e5"/>
      <stop offset="0.23" stop-color="#b7e0ea"/>
      <stop offset="0.58" stop-color="#96d5f4"/>
      <stop offset="0.68" stop-color="#7ec3e9" stop-opacity="0.98"/>
      <stop offset="0.79" stop-color="#69b2e0" stop-opacity="0.96"/>
      <stop offset="0.9" stop-color="#5ca8da" stop-opacity="0.95"/>
      <stop offset="1" stop-color="#58a5d8" stop-opacity="0.95"/>
    </linearGradient>
  </defs>
  <g id="Game_over" data-name="Game over">
    <rect class="cls-1" x="402.68" y="-441.53" width="1119.39" height="1963.06" transform="translate(1502.38 -422.38) rotate(90)"/>
    <polygon class="cls-2" points="3.53 269.5 122.31 148.5 334.97 260.1 419.54 179.68 710.38 337.68 896.08 200 1011.03 291.58 1337.22 333.04 1635.63 234.81 1943.91 332.83 1920 752.19 -0.72 752.19 3.53 269.5"/>
    <polygon class="cls-3" points="4.27 415.92 229.23 260.1 386.55 346.45 519.39 91.24 701.93 327.49 849.44 410.33 1272.81 244.76 1914.82 418.99 1919.44 861.04 -0.72 876.89 4.27 415.92"/>
    <g>
      <path class="cls-4" d="M509.94,264.79q-20.71,0-29.3-22.27a66.16,66.16,0,0,1-4.5-25,113.59,113.59,0,0,1,4.11-28.71,130.41,130.41,0,0,1,24.41-49q21.29-27.15,45.31-27.15,20.89,0,29.49,23l-21.68,23.24q-3.51-5.27-10.35-5.27-13.27,0-25,18.36a105.61,105.61,0,0,0-13.08,30.66,46.76,46.76,0,0,0-1.76,11.91c0,5.35,1.37,9.64,4.1,12.9q4.48,5.46,12.5,5.46,9.18,0,17-8.39a50.84,50.84,0,0,0,10.16-16.8q-14.46,2.93-26.76,6.05l6.19-28.63,51.84-11.13q.39,12.69-5.47,29.08a132.37,132.37,0,0,1-13.09,26.53Q541.19,264.79,509.94,264.79Z"/>
      <path class="cls-4" d="M559.66,262.64a1265.13,1265.13,0,0,0,46.49-141.21l59.37-10q-10.15,59.17-9.18,140l-41.4,9.57,2.93-24.41-13.09,2.53-4.1,17.19ZM621,210.39l9-73.72h-.2l-18.36,75.58Z"/>
      <path class="cls-4" d="M650.61,261.27a797,797,0,0,0,40.23-135.93l46.68-7.62-6.72,71.66,18.28-66.2,44.89-7.8q-8,63.68-8,114.84v20.12l-39.85,7,7-85.55-25.59,94.73-21.48,2.93L719,149.17,691.23,255.81Z"/>
      <path class="cls-4" d="M840,151.25q-1.56,5.69-2.73,11.16l-2.15,10.78,31.25-6.64-1.75,27q-22.23,3.92-34.89,6.84c-.52,2.6-1,5.21-1.36,7.81l-1.46,7.61,36.34-5.28-2.54,36.33q-28.12,2.34-71.29,13.48l23.24-140,65.06-9.58L875.14,147Q856,148.72,840,151.25Z"/>
      <path class="cls-4" d="M988.86,107.37q20.7,0,29.3,23a73.7,73.7,0,0,1,4.49,26.17,120.33,120.33,0,0,1-4.1,29.68,140.73,140.73,0,0,1-25,50.4q-21.67,28.12-45.9,28.12-20.89,0-29.69-23.05a71.21,71.21,0,0,1-4.29-25.39A118.14,118.14,0,0,1,918,186.27a142.25,142.25,0,0,1,24.81-50.58Q964.45,107.37,988.86,107.37Zm-7,48.44q-10.74,0-21.87,17.57a95,95,0,0,0-12.5,27.15,52.48,52.48,0,0,0-1.76,12.7q0,8,3.9,13.08,4.5,5.67,12.5,5.67,10.95,0,19.73-11.53A58.47,58.47,0,0,0,992,198.77a72.67,72.67,0,0,0,1.56-28.9Q991.21,155.8,981.83,155.81Z"/>
      <path class="cls-4" d="M1118.28,116a1385.15,1385.15,0,0,0-41.6,136.53l-52,9.37q4.88-27.74,6-67.58l1.17-68,39.07-8.79-16.8,124.61h.19l28.52-119.72Z"/>
      <path class="cls-4" d="M1145.93,151.25q-1.56,5.69-2.72,11.16l-2.15,10.78,31.25-6.64-1.76,27q-22.21,3.92-34.88,6.84c-.52,2.6-1,5.21-1.36,7.81l-1.47,7.61,36.34-5.28-2.53,36.33q-28.12,2.34-71.29,13.48l23.24-140,65.05-9.58L1181.1,147Q1162,148.72,1145.93,151.25Z"/>
      <path class="cls-4" d="M1196.45,122q30.66-9.18,50.2-9.18,26.37,0,26.17,18.36-.19,26.36-33.2,52.93,2.73,7.43,22.65,46.68-10.1,9.38-30.51,27.53l-20.8-53.9-.19,0-.25,0q-4.65,25.58-7,47.25l-30.92,8.61q.39-4.29,4.29-26Zm24.61,30.86q-1.75,6.63-3.12,13.28l-2.74,13.28a70.8,70.8,0,0,0,13.48-9.18q7.62-6.64,10.16-12.7a6.84,6.84,0,0,0,1-3.32q0-4.29-5.66-4.29Q1229.65,150,1221.06,152.88Z"/>
    </g>
    <ellipse class="cls-5" cx="418.3" cy="853.56" rx="1.08" ry="1.94"/>
    <ellipse class="cls-5" cx="424.36" cy="849.24" rx="1.08" ry="1.94" transform="translate(-347.5 296.5) rotate(-27.84)"/>
    <g>
      <rect class="cls-6" x="-0.55" y="823.5" width="1929.44" height="274.19"/>
      <rect class="cls-7" x="87.65" y="1036.72" width="171.79" height="31.18"/>
      <rect class="cls-7" x="469.67" y="1037.41" width="171.79" height="31.18"/>
      <rect class="cls-7" x="903.91" y="1036.82" width="171.79" height="31.18"/>
      <rect class="cls-7" x="1339.95" y="1036.82" width="171.79" height="31.18"/>
      <rect class="cls-7" x="1738.27" y="1037.82" width="171.79" height="31.18"/>
    </g>
    <g>
      <path class="cls-8" d="M235.07,798.2c-4.79-3.44-9-6.71-12.58-9.79,36.44-15.77,63.1-29.78,63.1-29.78s-84,5.63-129.26-36.49c16.48,3.36,24.63,2.07,10.18-8.29-30.73-22.05-35.88-37.48-35.88-37.48a.46.46,0,0,0-.09-.14c-.08-.37-.17-.73-.24-1.1a139.59,139.59,0,0,0-9.07-29.22c29.65,16.31,57.83,26.79,39.27,7.34-3.19-3.34-6-6.5-8.53-9.5,39.71,16.72,80.6,20.87,82.11,15.76,1.24-4.17-23.7-14.66-30.86-18.36C89,582.06,37,381.51,28,342.84c-.14-4.22-.22-6.5-.22-6.5s-.21,1-.63,2.85c-.42-1.86-.62-2.85-.62-2.85s-.08,2.28-.22,6.5C17.2,381.51-34.79,582.06-149,641.15c-6.23,3.22-32,15.1-30.87,18.36,1.29,3.63,35.94-3.81,72.05-17.69-2.94,3.62-6.35,7.52-10.31,11.67-22,23.07,21.75,4,55.7-16.93A134.19,134.19,0,0,0-76,675.13c-.13.65-.29,1.28-.43,1.92-1.37,3.19-8.64,17.45-35.61,36.8-14.38,10.32-6.37,11.64,10,8.34-45.24,42.07-129.21,36.44-129.21,36.44s37.61,19.77,84.57,38.77A182.08,182.08,0,0,1-163.63,811c-22.67,16.27,10.29,10.18,43.82-1.16a173.15,173.15,0,0,1-20.06,16.6c-25.85,18.55,20.63,8,57.82-6.2,47.18,13.66,91.62,18.54,109.17-2.91,21,25.65,80.41,13.66,137-6,34.64,12.06,70.63,19.13,47.2,2.32A182.69,182.69,0,0,1,194.42,800c.91-.35,1.8-.71,2.69-1.07C228.44,809,256.41,813.51,235.07,798.2Z"/>
      <path class="cls-8" d="M215.79,607c-4.32-3.1-8.08-6.06-11.35-8.84,32.87-14.22,56.93-26.86,56.93-26.86s-75.82,5.08-116.63-32.93c14.87,3,22.22,1.87,9.19-7.48C126.21,511,121.55,497,121.55,497a.64.64,0,0,0-.07-.12c-.07-.34-.16-.66-.22-1a126.75,126.75,0,0,0-8.18-26.37c26.75,14.72,52.17,24.17,35.43,6.63-2.88-3-5.43-5.87-7.7-8.57,35.83,15.08,72.72,18.82,74.09,14.21,1.11-3.76-21.39-13.22-27.85-16.56C84,411.94,37.12,231,28.93,196.11l-.2-5.87s-.19.9-.56,2.57c-.38-1.67-.57-2.57-.57-2.57s-.07,2-.19,5.87C19.22,231-27.69,411.94-130.72,465.26c-5.62,2.9-28.89,13.62-27.84,16.56,1.16,3.28,32.42-3.43,65-15.95-2.65,3.26-5.73,6.77-9.31,10.52-19.87,20.82,19.63,3.63,50.27-15.27a120.26,120.26,0,0,0-12.32,34.8c-.12.58-.26,1.15-.39,1.73-1.24,2.88-7.79,15.74-32.13,33.2-13,9.31-5.75,10.51,9,7.52-40.82,38-116.59,32.89-116.59,32.89s33.94,17.83,76.31,35a165.61,165.61,0,0,1-15.21,12.24c-20.45,14.68,9.28,9.18,39.53-1a157,157,0,0,1-18.1,15c-23.32,16.73,18.62,7.24,52.17-5.59,42.57,12.32,82.67,16.73,98.51-2.63,18.93,23.15,72.55,12.33,123.6-5.39,31.25,10.88,63.72,17.25,42.58,2.09a163.26,163.26,0,0,1-15.23-12.27l2.42-1C209.81,616.71,235,620.77,215.79,607Z"/>
      <path class="cls-8" d="M191.58,475.31c-3.81-2.74-7.13-5.35-10-7.8,29-12.57,50.28-23.73,50.28-23.73s-67,4.49-103-29.08c13.14,2.68,19.63,1.66,8.12-6.6-24.48-17.57-28.59-29.87-28.59-29.87l-.07-.11c-.06-.29-.14-.58-.19-.87A111.47,111.47,0,0,0,100.88,354c23.62,13,46.08,21.35,31.29,5.86-2.54-2.66-4.79-5.19-6.8-7.57,31.64,13.32,64.22,16.62,65.43,12.55,1-3.32-18.89-11.68-24.59-14.63C75.23,303.09,33.8,143.3,26.57,112.49c-.11-3.37-.17-5.19-.17-5.19s-.17.8-.5,2.28c-.34-1.48-.5-2.28-.5-2.28s-.06,1.82-.17,5.19C18,143.3-23.43,303.09-114.41,350.17c-5,2.57-25.51,12-24.59,14.63,1,2.9,28.63-3,57.4-14.09-2.34,2.89-5.06,6-8.22,9.3-17.55,18.38,17.34,3.2,44.39-13.49a106.69,106.69,0,0,0-10.88,30.73c-.1.52-.23,1-.34,1.53-1.09,2.54-6.88,13.9-28.38,29.32-11.45,8.22-5.07,9.27,7.94,6.64-36,33.52-102.95,29-102.95,29s30,15.75,67.38,30.89a143,143,0,0,1-13.43,10.81c-18.06,13,8.2,8.11,34.91-.92a137.54,137.54,0,0,1-16,13.22c-20.6,14.78,16.44,6.4,46.07-4.93,37.59,10.88,73,14.77,87-2.32C42.62,511,90,501.41,135.05,485.76c27.59,9.61,56.27,15.24,37.6,1.85a146.68,146.68,0,0,1-13.45-10.83l2.14-.86C186.3,483.92,208.59,487.51,191.58,475.31Z"/>
    </g>
    <g>
      <path class="cls-9" d="M248.77,698.84l21.73,6.24s11.15,46.07,3.35,95.1c-2.53,15.89-27,12.42-22.18-1.31C260.84,772.73,255.74,699.63,248.77,698.84Z"/>
      <path class="cls-9" d="M305.22,698.84,327,705.08s11.15,46.07,3.35,95.1c-2.53,15.89-27,12.42-22.18-1.31C317.29,772.73,312.19,699.63,305.22,698.84Z"/>
      <path class="cls-10" d="M239,650a50.26,50.26,0,0,1,3.55,20c-.42,11.81-5.26,19.33-1,24.88,1.08,1.42,2.43,2.28,7.21,4,9,3.25,28.2,10.21,32.31,4.18.85-1.24.36-4.77-.62-11.83-1-7.55-2-9.85-.61-11.08,1.94-1.74,5.17,1.72,12.15,1.4,5.44-.25,7.27-2.53,8.8-1.3,2.36,1.91-1.54,7.68-1.43,18.63.05,4.87.08,7.3,1.75,9.4,3.12,3.92,9.3,3.6,20.41,2.86,8.78-.58,13.18-.87,15.55-3.23,4.2-4.17,2.86-11.1,1.12-23-1.2-8.28-2.77-20.14-4.16-34.87Z"/>
      <g>
        <path class="cls-11" d="M277.11,502.08H187.48a1.48,1.48,0,0,0-1.45,1.26,511.9,511.9,0,0,0-5,54.53c-1.66,43.83,3.6,55.32,11.14,62.14A37.39,37.39,0,0,0,208,628.22c13.24,3.16,21.66-3,39.87-6.45A118.62,118.62,0,0,1,277.11,620Z"/>
        <path class="cls-12" d="M187.37,502.1a1.25,1.25,0,0,0-1.25,1.08A505.54,505.54,0,0,0,181,557.87c-1.67,43.83,3.65,55.32,11.27,62.14a38,38,0,0,0,16,8.21,1.93,1.93,0,0,0,1,0c6.45-1.4,3.84-27.9,4.59-56.26,1-39.8,8.89-66,0-69.86-1.12-.49-1.41-.15-10.79,0C196.59,502.24,191.19,502.18,187.37,502.1Z"/>
      </g>
      <g>
        <path class="cls-13" d="M197.16,441a129.14,129.14,0,0,0,29.72,7.89c14.2,1.94,24.42,5.88,31.5,7.57,14.21,3.4,16.68,6,21.25,11.31,1.72,2-5.17,4-6.85,5.79-16.59,18-11.86,29.22-26.19,30.07a238.82,238.82,0,0,1-26.73-.43c-9.31-.82-22.73.91-20.47-2.61,13.37-20.86,9.4-51.7,2.55-56.35Z"/>
        <path class="cls-14" d="M181.31,471.73c0,17,6.86,30.78,15.33,30.78,3.42,0,5.49,1,8-2.78,3.77-5.61,7.3-17.87,7.3-28,0-17-6.87-30.78-15.34-30.78S181.31,454.73,181.31,471.73Z"/>
        <path class="cls-15" d="M192.74,471.58a.5.5,0,1,1,.31.64.4.4,0,0,1-.17-.1A.49.49,0,0,1,192.74,471.58Z"/>
        <path class="cls-15" d="M192.89,471.87A1.93,1.93,0,0,0,191.5,473C190.91,474,192.89,471.87,192.89,471.87Z"/>
        <path class="cls-15" d="M195,470.76a1.91,1.91,0,0,1-1.47,1C192.37,472,195,470.76,195,470.76Z"/>
        <path class="cls-15" d="M193.37,471.27a3,3,0,0,1-.62-2.55C193.06,467.19,193.37,471.27,193.37,471.27Z"/>
        <path class="cls-15" d="M193.68,471.91a8.87,8.87,0,0,0,1.51,4.08C196.54,477.81,193.68,471.91,193.68,471.91Z"/>
        <path class="cls-16" d="M218.45,447.36l1.86.31c.57.1,6.19,14.43,6.74,25.56a245,245,0,0,1-.75,30.37c0,.22-.18-.19-1.2-.1-1.61.14,1.82-13.48-.25-34.31a67.45,67.45,0,0,0-3.33-14.67C220.59,451.86,219.12,449.83,218.45,447.36Z"/>
        <path class="cls-16" d="M265.18,479.17c-3.34-17.67-5.16-22.59-6.21-22.78l-1.86-.31h0a63.3,63.3,0,0,1,6.4,21.83l.33,2.35"/>
      </g>
      <path class="cls-17" d="M364.33,502.67c2.25-4,4.72-9.94,2.46-14.76-2.91-6.2-12.51-4.85-15.2-11.23-2-4.8,2.26-7.89,1-11.23-4.06-11.09-64.29-12.87-95,21.6a72.25,72.25,0,0,0-11,16.53c-4.75,22.29-9,46.66-12.25,72.93-3.06,24.84-4.83,48.25-5.68,69.94A260.79,260.79,0,0,0,340.1,661.24a105.87,105.87,0,0,0,2.45-24.9c-.18-9.12-1.49-14.71-5-34.31-3-16.94-4.53-25.41-4.47-26.32,1.23-18.12,13.35-23.35,23.85-48.43A123.64,123.64,0,0,0,364.33,502.67Z"/>
      <path class="cls-11" d="M226.3,609.79c.16-3.22.31-6.45.46-9.67,2.07-.16,40-3.74,56.77-37.16,10.2-20.29,10.34-47.12-3.49-66.41a55.83,55.83,0,0,0-17.17-15.49L275,471.11a82.37,82.37,0,0,1,18.14,27.18c2.12,5.24,18.5,46.25-6.55,80.4C265.57,607.33,231.26,609.55,226.3,609.79Z"/>
      <path class="cls-11" d="M337.57,602q-.33-6.54-.65-13.1c-11-17.33-12.18-38.54-2.82-55.14,8.85-15.68,23.88-21.47,28.41-23,.61-2.7,1.21-5.4,1.82-8.1-2.83.73-30.37,8.36-40.94,35.65C315.06,559.82,320.62,584.87,337.57,602Z"/>
      <path class="cls-9" d="M283.67,656.38c.09.49.87,5.2-2.41,8.53-3.13,3.17-7.92,3.05-10.93,1.61-4.67-2.23-7.22-8.7-5.06-15.22.35-2.42.85-5.89,1.43-10.09,1.14-8.17,1.3-9.66,1.41-11.27a94.1,94.1,0,0,0-.16-12.7c-.48-9.08-.88-12.46-1.14-16.9-.59-9.94.51-13.33.37-22a195.8,195.8,0,0,0-2.61-28.88l19.1,6.72c-.8,16.46-.79,29.68-.63,39,.21,11.13.58,13.14,0,19.29-1.14,12.18-3.87,17.53-3,27.47A48.78,48.78,0,0,0,283.67,656.38Z"/>
      <path class="cls-9" d="M356.8,628.64c-5.54,4-16.73-3.08-30.12-11.55a17.72,17.72,0,0,1-6.77-7.24c-.66-1.36-2.29-4.77-1-8.24.13-.35,1.06-2.77,2.69-3.52,5.94-2.73,18,17.91,22.54,15.9,3.45-1.51-.38-14.58-1.95-37-.64-9.11-.69-16.55-.63-21.21.37.36,3.17,2.93,6.55,1.45a8.45,8.45,0,0,0,3.65-3.54c1.95,21.3,4.13,38.44,5.8,50.36C359.58,618.15,360.94,625.65,356.8,628.64Z"/>
      <path class="cls-18" d="M272.85,501.45c-9.54,3.56-13.9,22.38-10.63,47.63l25.66,8.34c5.95-28,3.7-50.36-6.48-55.43A11.31,11.31,0,0,0,272.85,501.45Z"/>
      <g>
        <path class="cls-9" d="M448.67,437.5c-15.5-21.32-49.31-37.15-67.33-24-15.27,11.11-13.95,39.2-6.85,56.49a61.81,61.81,0,0,0,8.2,13.91c19,26.08,44.31,30.8,62.53,18S467.63,463.58,448.67,437.5Zm-37.4,5.71c-5.3-4.72,1.76-12.63,7.05-7.92S416.56,447.92,411.27,443.21Z"/>
        <ellipse class="cls-9" cx="434.64" cy="416.03" rx="62.06" ry="45.82" transform="translate(-165.09 464.12) rotate(-48.33)"/>
        <path class="cls-19" d="M450.69,435.27c-5.15,4.48-17.09,8.89-25.94,1-7.9-7-8.11-19.21-2-25.88,4.61-5,13.27-7.43,18-4.25C446,409.74,444,418.89,451,422.68c2.07,1.12,3.71,1.12,4.47,2.69C456.89,428.3,453.34,433,450.69,435.27Z"/>
        <g>
          <ellipse class="cls-20" cx="365" cy="416.04" rx="13.96" ry="18.05" transform="translate(-188.45 412.1) rotate(-48.33)"/>
          <ellipse class="cls-20" cx="370.91" cy="402.61" rx="13.96" ry="18.05" transform="translate(-176.43 412.01) rotate(-48.33)"/>
          <path class="cls-20" d="M368.83,397.49c-5.13,5.76-15.32,5.06-22.77-1.57s-9.33-16.67-4.2-22.43,16.84-6.77,24.29-.14S374,391.73,368.83,397.49Z"/>
          <ellipse class="cls-20" cx="376.99" cy="404.75" rx="21.77" ry="14.41" transform="translate(-123.85 639.48) rotate(-72.15)"/>
          <ellipse class="cls-20" cx="364.23" cy="357.98" rx="14.12" ry="17.85" transform="translate(-53.85 651.27) rotate(-79.55)"/>
          <ellipse class="cls-20" cx="382" cy="331.95" rx="17.65" ry="21.46" transform="translate(-106.23 198.76) rotate(-25.73)"/>
          <ellipse class="cls-20" cx="402.69" cy="321.52" rx="17.83" ry="21.25" transform="translate(-47.69 71.14) rotate(-9.53)"/>
          <ellipse class="cls-20" cx="470.89" cy="306.77" rx="27.57" ry="35.26" transform="translate(24.6 648.34) rotate(-70.51)"/>
          <ellipse class="cls-20" cx="510.05" cy="347.24" rx="27.41" ry="35.47" transform="translate(-98.62 448.5) rotate(-43.69)"/>
          <ellipse class="cls-20" cx="502.13" cy="375.02" rx="27.41" ry="35.47" transform="translate(-120 450.72) rotate(-43.69)"/>
          <ellipse class="cls-20" cx="460.76" cy="349.34" rx="27.41" ry="35.47" transform="translate(-113.72 415.03) rotate(-43.69)"/>
          <ellipse class="cls-20" cx="428.51" cy="342.62" rx="27.41" ry="35.47" transform="translate(-118.01 390.89) rotate(-43.69)"/>
          <ellipse class="cls-20" cx="403.29" cy="352.64" rx="27.41" ry="35.47" transform="translate(-131.91 376.25) rotate(-43.69)"/>
          <ellipse class="cls-20" cx="383.66" cy="373.41" rx="24.95" ry="21.89" transform="translate(-151.7 377.72) rotate(-44.68)"/>
          <ellipse class="cls-20" cx="542.16" cy="392.93" rx="22.39" ry="25.05" transform="translate(-119.6 494.98) rotate(-44.7)"/>
          <ellipse class="cls-20" cx="536.67" cy="425.07" rx="18.5" ry="21.97" transform="translate(-144.57 493.03) rotate(-44.08)"/>
          <ellipse class="cls-20" cx="509.07" cy="416.7" rx="21.18" ry="19.2" transform="translate(-146.18 475.33) rotate(-44.42)"/>
          <ellipse class="cls-20" cx="487.63" cy="402.27" rx="14.36" ry="14.91" transform="translate(-137.05 499.09) rotate(-48.33)"/>
          <ellipse class="cls-20" cx="471.7" cy="390.33" rx="14.36" ry="12.42" transform="translate(-138.08 445.4) rotate(-44.77)"/>
          <ellipse class="cls-20" cx="450.38" cy="379.37" rx="14.52" ry="12.28" transform="translate(-72.39 108.31) rotate(-12.7)"/>
          <ellipse class="cls-20" cx="427.38" cy="378.39" rx="14.37" ry="12.41" transform="translate(-143.44 378.21) rotate(-41.5)"/>
          <ellipse class="cls-20" cx="405.81" cy="384.95" rx="14.36" ry="11.18" transform="translate(-151.54 432.16) rotate(-48.33)"/>
          <ellipse class="cls-20" cx="422.5" cy="304.15" rx="23.37" ry="27.8" transform="translate(-44.77 74.65) rotate(-9.59)"/>
        </g>
        <ellipse class="cls-9" cx="382.54" cy="396.33" rx="12.43" ry="13.54" transform="translate(-167.84 418.6) rotate(-48.33)"/>
        <ellipse class="cls-19" cx="465.26" cy="445.5" rx="18.01" ry="18.7" transform="translate(-176.85 496.87) rotate(-48.33)"/>
        <path class="cls-21" d="M434.86,466.56a15.31,15.31,0,0,1-3.94-6l2-.7c1.45,3.73,3.62,6.09,6.31,6.83a6.72,6.72,0,0,0,5.92-1.13c.79-.67,1.94-3.47,1.32-6.45a6.84,6.84,0,0,0-4.77-5.23l.66-2a9,9,0,0,1,6.21,6.87c.72,3.45-.46,7.16-2,8.46a8.82,8.82,0,0,1-7.85,1.54A9.72,9.72,0,0,1,434.86,466.56Z"/>
        <path class="cls-21" d="M457.78,425.34a.85.85,0,0,1-.13.48c-.29.34-.49.61-1.12.32a30.86,30.86,0,0,1-12.12-9.71s-4-5.44-4.68-15.71c0-.19-.05-.75.26-1s.58-.24,1,.16c1.32,1.26,1.42,10.66,5,15.77S457.73,424.26,457.78,425.34Z"/>
        <path class="cls-21" d="M482.3,425.91h0a18.28,18.28,0,0,0-1.78-1.24,19.14,19.14,0,0,0-2.87-1.47s-4.86-2-12.76.06c-.15,0-.58.15-.68.47a.62.62,0,0,0,.31.81c.65.43,8.45-1.18,12.86.17a9.77,9.77,0,0,1,4.22,2.7C481.76,427.08,482.3,425.91,482.3,425.91Z"/>
        <path class="cls-21" d="M437.72,420.7c-2.3-2.43-8.48-8.35-8.48-8.35s-4.53-3.37-5-3.18-.27.89-.6.83c21.8,16.3,23.44,28.15,23.44,28.15l.92-.09A48,48,0,0,0,437.72,420.7Z"/>
        <path class="cls-21" d="M448.12,428.56a3.94,3.94,0,0,1-1,.07,8.09,8.09,0,0,1,.79,6.19l.56-.31A12.81,12.81,0,0,0,448.12,428.56Z"/>
        <path class="cls-21" d="M440.47,434.13a4,4,0,0,0,.59-.83,8.52,8.52,0,0,0,5.06,3.83l-.56.31A13.65,13.65,0,0,1,440.47,434.13Z"/>
        <path class="cls-21" d="M481.2,455a49,49,0,0,0-4-3.75s-7.14-4.7-10-6.4A47.81,47.81,0,0,0,448,438.71l.12.92s11.74-1.07,32.29,16.24c.11-.12.25-.22.38-.34S481.06,455.16,481.2,455Z"/>
        <path class="cls-21" d="M457.2,436.46a3.89,3.89,0,0,0,.17,1,8,8,0,0,0-6.18.63l.17-.61A12.71,12.71,0,0,1,457.2,436.46Z"/>
        <path class="cls-21" d="M453.54,445.21a3.78,3.78,0,0,1,.67-.77,8.49,8.49,0,0,1-4.86-4.07l-.18.61A13.73,13.73,0,0,0,453.54,445.21Z"/>
        <path class="cls-21" d="M423,464.39c-3.3-2.12-6.84-1.48-8.95-4.81-1.08-1.7-.7-2.71-2.16-5.34a20.31,20.31,0,0,0-4.19-5c-4.86-4.12-15.11-6.88-18.84-2.47-3.27,3.88.15,11.32.37,11.79,2.52,5.31,5.9,5.27,12,11.12,8.76,8.33,7.77,14,14.2,16.23,4.13,1.43,9.49.81,12.12-2.25C431.79,478.78,428.71,468.06,423,464.39Z"/>
        <path class="cls-22" d="M422.62,475.48q-2.22-1.46-4.48-3.26a65.76,65.76,0,0,1-16.86-20.58,7.78,7.78,0,0,1,2.46-5c.24.11.52.24.82.4,0,0,.45.23.89.49a16,16,0,0,1,3.36,2.72,21.78,21.78,0,0,1,3.16,3.89,22.77,22.77,0,0,1,1.38,2.61,18.08,18.08,0,0,0,1,2.48,7.11,7.11,0,0,0,2.85,2.45c.52.24.39.09,1.44.49a28.28,28.28,0,0,1,2.62,1.19c.73.37,1.11.56,1.48.79a11.76,11.76,0,0,1,1.59,1.25,15.68,15.68,0,0,1,1.6,1.66,12.67,12.67,0,0,1,2.06,3.11,10,10,0,0,1,.65,2.07l-3.85,3.43A1.58,1.58,0,0,1,422.62,475.48Z"/>
        <g>
          <path class="cls-23" d="M396.78,465.65c1.51-1.27,2.17-1.85,2.2-1.9h0s.05.14.05.16a20.14,20.14,0,0,0,.74,2c.08.5.18,1,.3,1.55.16.71.34,1.39.52,2-.47-.52-1-1.06-1.51-1.6C398.31,467.05,397.53,466.32,396.78,465.65Z"/>
          <path class="cls-5" d="M424,574.67c.63,20.05-3.59,48.56-11.3,49.52-8.13,1-24.06-28.11-20.73-50,.64-4.16,2-12.23,2.87-24.38.3-4.13-.12-3.19,0-14.35,0-3.15.13-11.76.56-18.27,1.36-20.32,7.54-42.22,4.7-49.33-.19-.47-1.6-3.87-1.1-4.13.2-.11.62.32.78.46,2.5,2.24,5.74,5,10.27,8.5,5.48,7.24,12.12,18.36,13.45,32.64,1.23,13.26-3.34,15.9-2.84,32.05C421.2,555.23,423.49,558,424,574.67Z"/>
          <path class="cls-5" d="M420.42,846.68c-1.75,2.28,6.08,8.13,4.46,14.48-.95,3.7-5,7.22-8.7,7.1-5-.17-6.52-6.91-13.57-7.66-2.1-.23-1.82.39-4.26.28-1.64-.07-6.11-.55-15.85-9.12-4.48-4-6.78-5.92-6.82-7.3-.24-9.14,25.15-15.7,26.93-16.14,1.62-.41,30.34-7.38,35.88,3.08,2.6,4.92-.38,13.38-5.26,15.76C428.17,849.63,422,844.64,420.42,846.68Z"/>
        </g>
      </g>
      <path class="cls-18" d="M339.45,561.72c.55.93,2.95,2,7.76,4,4.49,1.93,6.74,2.9,7.67,2.77,6.37-.89,8.74-20,9.75-28.6,2.21-18.84,1.85-37.86.12-38-1.06-.07-1.05,7.26-5.65,19.31a134.09,134.09,0,0,1-9.83,19.88C342.22,553.26,337.4,558.27,339.45,561.72Z"/>
      <g>
        <ellipse class="cls-24" cx="287.02" cy="843.09" rx="20.31" ry="53.14" transform="translate(-527.5 482.91) rotate(-47.34)"/>
        <path class="cls-16" d="M326.1,879.09c-10.26,6.36-12.89,1.12-32.43-7.94-8.32-3.86-30.81-26.9-35.29-33.14-9.86-13.76-15.67-25.25-10.44-30.93,4.06-4.41,12.67-3.73,23.45-2,9.84,1.58,18.47,14.87,29.4,23.06C324.27,845.74,335.64,873.18,326.1,879.09Z"/>
        <rect class="cls-16" x="265.44" y="796.96" width="16.67" height="20.13" rx="1.94"/>
      </g>
      <g>
        <ellipse class="cls-24" cx="358.56" cy="826.36" rx="20.51" ry="55.52" transform="translate(-537.22 921.29) rotate(-72.59)"/>
        <path class="cls-16" d="M411.47,843.18c-7.06,10.08-11.84,6.36-34.44,6.15-9.61-.09-41.07-11.89-48-15.76-15.37-8.53-25.88-16.66-23.33-24,2-5.72,10.5-8.66,21.56-11.53,10.08-2.62,24.07,6,38.06,9C395.32,813.38,418,833.82,411.47,843.18Z"/>
        <path class="cls-16" d="M334.16,809l-7.36-.11a5.14,5.14,0,0,1-5.08-4.95l-.17-10.66a4.75,4.75,0,0,1,4.93-4.78l7.36.11a5.13,5.13,0,0,1,5.08,4.94l.17,10.66A4.76,4.76,0,0,1,334.16,809Z"/>
      </g>
      <path class="cls-9" d="M370,445.63a76.63,76.63,0,0,1-17.37,19.82,11.48,11.48,0,0,0,.43,13.11,11.94,11.94,0,0,0,12.78,4.5,12.52,12.52,0,0,1,.52-3.36c1.62-5.34,6.47-7.84,8-8.54Q372.16,458.4,370,445.63Z"/>
      <ellipse class="cls-9" cx="319.79" cy="602.24" rx="10.36" ry="14.07" transform="matrix(0.84, -0.55, 0.55, 0.84, -278.02, 274.24)"/>
    </g>
    <path class="cls-4" d="M866.7,337.76c4,.78,6.87,3.91,7.1,7.22.3,4.33-3.94,8.91-9.63,8.55a116,116,0,0,0-15.91,3.3c-12.91,3.64-28.62,8.07-40.08,21-14.12,16-14.32,36.45-14.17,42.09.61,22.57,13.44,49.23,38.55,58.51,19.72,7.29,37.13.53,40.65-.92,29.48-12.16,36-44.36,36.53-47-4.16,4.68-9.39,7-13.39,5.51a7.07,7.07,0,0,1-3.64-2.83c-2-3.21-.39-7.48,0-8.59,3.61-9.49,4.19-47.51,4.19-47.51s5.21-5.64,8.1-2,40.15,28.25,40.15,28.25,3.61,5.13,0,8.07-12.72,7.28-12.72,7.28a85.36,85.36,0,0,1-5,33.8c-2,5.38-9.92,27.11-30.38,39.62C882,501.4,860.55,505.4,860.55,505.4h0a88.67,88.67,0,0,1-44.47-9.54,90.07,90.07,0,0,1-33.27-29.35c-4.76-9.33-13.74-30.33-10.13-56.49a79.27,79.27,0,0,1,10.13-30.45c13.16-22.33,34-30.9,42.67-34.48A99.68,99.68,0,0,1,866.7,337.76Z"/>
    <path class="cls-8" d="M862.92,337.75c3.82.75,6.59,3.71,6.81,6.84.29,4.1-3.78,8.43-9.24,8.09a113.47,113.47,0,0,0-15.28,3.13c-12.4,3.44-27.48,7.64-38.47,19.88C793.17,390.8,793,410.2,793.13,415.53c.59,21.37,12.9,46.6,37,55.38,18.94,6.91,35.65.51,39-.86,28.3-11.51,34.61-42,35.07-44.45-4,4.43-9,6.58-12.85,5.21a6.75,6.75,0,0,1-3.49-2.68c-1.88-3-.38-7.08,0-8.13,3.47-9,4-45,4-45s5-5.33,7.79-1.86,38.54,26.74,38.54,26.74,3.47,4.86,0,7.63-12.21,6.9-12.21,6.9a79.54,79.54,0,0,1-4.8,32c-1.89,5.09-9.52,25.66-29.17,37.51-14.46,8.71-35.07,12.49-35.07,12.5h0a85.62,85.62,0,0,1-74.64-36.8c-4.57-8.83-13.19-28.72-9.72-53.47a74.18,74.18,0,0,1,9.72-28.82c12.64-21.15,32.62-29.25,41-32.64A96.88,96.88,0,0,1,862.92,337.75Z"/>
    <g>
      <rect class="cls-25" x="1336.37" y="395.2" width="189.96" height="223.27"/>
      <rect class="cls-25" x="1558.41" y="395.2" width="189.96" height="223.27"/>
      <rect class="cls-25" x="1782.15" y="395.2" width="189.96" height="223.27"/>
      <path class="cls-26" d="M2716.05,354.86c-3-3.23-12.43-11.23-38.83-6.28l-31.66,47.48a195.8,195.8,0,0,0-63.31-67.83c-50.13-32.72-100.78-32.33-119.07-31.31-648.72-82.16-1137.73-81.46-1181,6.44-17.29,35.11-27.31,75.19-27.31,75.19-1.62,6.46-3,12.74-4.2,18.88-11.35,58.44-4.53,103.19-.15,156.9,12.2,149.43-11.41,160.25,3.18,352.75,2.82,37.23,6,67.38,8.13,85.89,24.36,2.12,59.39,4.78,102,6.64,46.63,2,52.7.93,58.94-3.19,40.35-26.6-10.69-114,28.68-164.09,40.39-51.33,163.43-47.41,197.54,3.19,31.43,46.63-19,123.5,12.74,145,6.52,4.41,10.06,2.12,63.73,0,35-1.39,26.16-.12,66.91-1.59,11-.4,34.27-1.31,103.48-5.7,67.12-4.27,81-5.69,127.38-8,31.9-1.61,47.84-2.41,63.75-2.52,47.08-.32,51.34,4.22,60.64-.88,34.71-19-1.31-90.43,32.6-134,38.83-49.83,158.43-49.18,199.19,2.37,34.47,43.59-.1,107.5,35.84,129.6,9.21,5.66,33.21,2.6,81.25-3.19,60.36-7.27,69-14.06,73.75-18.92,21.68-22.31.75-50.31,23.06-69.19,30.43-25.75,78.81-5.38,91.63-28.05,6.66-11.78-1.85-25.34-8.1-43-10.06-28.39-5.88-43.61-.55-72.69a56.94,56.94,0,0,1-23.54-5.91c-30.88-15.7-37-58.09-51.37-155.9-5-34.18-12.65-86-15.74-106.92l83.94,9.49c.42,2.16.83,4.35,1.23,6.55a3.75,3.75,0,0,1,.42-.62c4.81-5.77,20.32,6.65,31.16,1.25,9.22-4.6,8-18.54,11.22-51.12C2718.2,375.05,2724.7,364.17,2716.05,354.86ZM1526.33,618.47h-190V395.2h190Zm222,0h-190V395.2h190Zm223.74,0h-190V395.2h190Zm216.84,0H1999V395.2h190Zm216,0H2215V395.2h190Zm158.5-63.84-125.38-2.42q-1.18-78.51-2.38-157l122.93,1.65Z"/>
      <path class="cls-27" d="M1253.87,358.11a3,3,0,0,0,5.16,2.46c10.89-10.95,39.13-38.27,95.65-31.15,124,15.61,1271.32,34.77,1271.59,34.16,4-9.22-20.8-34-47.07-51.52-27.25-18.16-54.54-21.51-64.65-22.78-213-26.82-603-43.47-603-43.47-17.6-.75-139.43-6.07-288.49-13.46-74.27-3.68-148.51,14.1-222.8,11-15.4-.64-58.15-2.63-94.13,22.66a124.52,124.52,0,0,0-31.17,32.48A131.07,131.07,0,0,0,1253.87,358.11Z"/>
      <rect class="cls-27" x="1612.79" y="399.97" width="38.34" height="732.93" transform="translate(2398.39 -865.53) rotate(90)"/>
      <rect class="cls-28" x="1618.3" y="427.29" width="38.34" height="753.11" transform="translate(2441.31 -833.62) rotate(90)"/>
      <path class="cls-27" d="M1708.35,959.4h-29.2s0,0,0,0V813.81A13.14,13.14,0,0,0,1666,800.67h-219.4a13.14,13.14,0,0,0-13.14,13.14V974.35a0,0,0,0,1,0,0h-26.27c-7.23,0-13.46,5.66-13.57,12.9a13.1,13.1,0,0,0,13.1,13.31h41.48a13.14,13.14,0,0,0,13.14-13.14V843.3a13.15,13.15,0,0,1,13.14-13.15h165.35a13.14,13.14,0,0,1,13.14,13.15c0,31.77.42,57.23,0,129.2,0,2.38,0,4.29,0,5.29a9.37,9.37,0,0,0,2.55,5.57c2,1.95,5.9,2.09,13.65,2.35,4.71.16,9.45-.11,10-.11h29.7a13.11,13.11,0,0,0,13.1-13.31C1721.81,965.06,1715.58,959.4,1708.35,959.4Z"/>
      <ellipse class="cls-29" cx="1559.02" cy="921.24" rx="104.17" ry="95.13"/>
      <circle class="cls-27" cx="1559.73" cy="920.92" r="49.43"/>
      <circle class="cls-29" cx="1559.17" cy="923.2" r="11.98"/>
      <g>
        <g>
          <ellipse class="cls-30" cx="1559.63" cy="893.33" rx="3.75" ry="12.2"/>
          <circle class="cls-29" cx="1559.63" cy="921.24" r="0.76"/>
        </g>
        <g>
          <ellipse class="cls-30" cx="1576.48" cy="898.8" rx="12.2" ry="3.75" transform="translate(-77.3 1645.9) rotate(-54)"/>
          <circle class="cls-29" cx="1560.08" cy="921.38" r="0.76"/>
        </g>
        <g>
          <ellipse class="cls-30" cx="1586.89" cy="913.14" rx="12.2" ry="3.75" transform="translate(-204.51 535.07) rotate(-18)"/>
          <circle class="cls-29" cx="1560.35" cy="921.76" r="0.76"/>
        </g>
        <g>
          <ellipse class="cls-30" cx="1586.89" cy="930.85" rx="3.75" ry="12.2" transform="translate(211.22 2152.43) rotate(-72)"/>
          <circle class="cls-29" cx="1560.35" cy="922.23" r="0.76"/>
        </g>
        <g>
          <ellipse class="cls-30" cx="1576.48" cy="945.18" rx="3.75" ry="12.2" transform="translate(-254.48 1107.15) rotate(-36)"/>
          <circle class="cls-29" cx="1560.08" cy="922.61" r="0.76"/>
        </g>
        <g>
          <ellipse class="cls-30" cx="1559.63" cy="950.66" rx="3.75" ry="12.2"/>
          <circle class="cls-29" cx="1559.63" cy="922.75" r="0.76"/>
        </g>
        <g>
          <ellipse class="cls-30" cx="1542.79" cy="945.18" rx="12.2" ry="3.75" transform="translate(-128.71 1637.76) rotate(-54)"/>
          <circle class="cls-29" cx="1559.19" cy="922.61" r="0.76"/>
        </g>
        <g>
          <ellipse class="cls-30" cx="1532.37" cy="930.85" rx="12.2" ry="3.75" transform="translate(-212.65 519.09) rotate(-18)"/>
          <circle class="cls-29" cx="1558.91" cy="922.23" r="0.76"/>
        </g>
        <g>
          <ellipse class="cls-30" cx="1532.37" cy="913.14" rx="3.75" ry="12.2" transform="translate(190.4 2088.34) rotate(-72)"/>
          <circle class="cls-29" cx="1558.91" cy="921.76" r="0.76"/>
        </g>
        <g>
          <ellipse class="cls-30" cx="1542.79" cy="898.8" rx="3.75" ry="12.2" transform="translate(-233.66 1078.48) rotate(-36)"/>
          <circle class="cls-29" cx="1559.19" cy="921.38" r="0.76"/>
        </g>
        <g>
          <ellipse class="cls-30" cx="1559.63" cy="893.33" rx="3.75" ry="12.2"/>
          <circle class="cls-29" cx="1559.63" cy="921.24" r="0.76"/>
        </g>
      </g>
      <path class="cls-31" d="M1249.92,816l-93.4.57c-56.35.34-99-9.94-127.27-37.93-38.73-38.41-7.38-79.48-38.9-147.44-33-71.22-116.36-131.4-156-109.34-30.15,16.79-37.92,71.95-28.25,130.43A106.44,106.44,0,1,0,688,816.06a79.17,79.17,0,0,0,70.62,111.36,58.91,58.91,0,1,0,116.11,18.7,481.62,481.62,0,0,1,119.9-55.78c110.19-33.72,206.34-19.35,257-7.68Q1250.74,849.33,1249.92,816Z"/>
    </g>
    <path class="cls-5" d="M389.92,816c-.25,1.76-7.36.74-9.13,4.49-1,2.1.53,3.92-.68,5.16-1.37,1.4-4.75.62-6.88-.69a10.72,10.72,0,0,1-4.12-12.37,6.08,6.08,0,0,1,2.75-3.43c1.79-.88,3.63-.23,8.25,1.71C389.6,814.82,390,815.5,389.92,816Z"/>
    <ellipse class="cls-5" cx="386.7" cy="822.12" rx="0.83" ry="1.55" transform="translate(-407.44 380.81) rotate(-35.75)"/>
    <ellipse class="cls-5" cx="385.81" cy="827.83" rx="0.83" ry="1.55" transform="translate(-194.75 122.78) rotate(-14.48)"/>
  </g>
</svg>
